<svg viewBox="0 0 100 100" xmlns="http://www.w3.org/2000/svg">
  <style>
    .sg-light { display: inline; }
    .sg-dark { display: none; }
    @media (prefers-color-scheme: dark) {
      .sg-light { display: none; }
      .sg-dark { display: inline; }
    }
  </style>
  <defs>
    <linearGradient id="sg-grad" x1="0%" y1="0%" x2="100%" y2="100%">
      <stop offset="0%" stop-color="#0ea5e9"/>
      <stop offset="100%" stop-color="#1d4ed8"/>
    </linearGradient>
  </defs>
  <g class="sg-light">
    <circle cx="50" cy="50" r="42" fill="none" stroke="url(#sg-grad)" stroke-width="5"/>
    <g fill="url(#sg-grad)" stroke="url(#sg-grad)" stroke-width="3" stroke-linejoin="round">
      <polygon points="50,14 42,40 58,40"/>
      <polygon points="50,14 42,40 58,40" transform="rotate(120 50 50)"/>
      <polygon points="50,14 42,40 58,40" transform="rotate(240 50 50)"/>
    </g>
    <circle cx="50" cy="50" r="5" fill="#bae6fd"/>
  </g>
  <g class="sg-dark">
    <circle cx="50" cy="50" r="42" fill="none" stroke="white" stroke-width="5"/>
    <g fill="white" stroke="white" stroke-width="3" stroke-linejoin="round">
      <polygon points="50,14 42,40 58,40"/>
      <polygon points="50,14 42,40 58,40" transform="rotate(120 50 50)"/>
      <polygon points="50,14 42,40 58,40" transform="rotate(240 50 50)"/>
    </g>
    <circle cx="50" cy="50" r="5" fill="white" fill-opacity="0.9"/>
  </g>
</svg>